<?xml version="1.0" encoding="UTF-8" standalone="no"?>
<!-- Created with Inkscape (http://www.inkscape.org/) -->

<svg
   xmlns:dc="http://purl.org/dc/elements/1.1/"
   xmlns:cc="http://creativecommons.org/ns#"
   xmlns:rdf="http://www.w3.org/1999/02/22-rdf-syntax-ns#"
   xmlns:svg="http://www.w3.org/2000/svg"
   xmlns="http://www.w3.org/2000/svg"
   xmlns:sodipodi="http://sodipodi.sourceforge.net/DTD/sodipodi-0.dtd"
   xmlns:inkscape="http://www.inkscape.org/namespaces/inkscape"
   width="210mm"
   height="297mm"
   viewBox="0 0 744.09448819 1052.3622047"
   id="svg2"
   version="1.1"
   inkscape:version="0.91 r13725"
   sodipodi:docname="D1_D2_eSTDP_iSTDP.svg">
  <defs
     id="defs4">
    <marker
       inkscape:stockid="Arrow1Mend"
       orient="auto"
       refY="0.0"
       refX="0.0"
       id="marker8324"
       style="overflow:visible;"
       inkscape:isstock="true">
      <path
         id="path8326"
         d="M 0.0,0.0 L 5.0,-5.0 L -12.5,0.0 L 5.0,5.0 L 0.0,0.0 z "
         style="fill-rule:evenodd;stroke:#000000;stroke-width:1pt;stroke-opacity:1;fill:#000000;fill-opacity:1"
         transform="scale(0.4) rotate(180) translate(10,0)" />
    </marker>
    <marker
       inkscape:stockid="Arrow1Mend"
       orient="auto"
       refY="0.0"
       refX="0.0"
       id="marker7795"
       style="overflow:visible;"
       inkscape:isstock="true">
      <path
         id="path7797"
         d="M 0.0,0.0 L 5.0,-5.0 L -12.5,0.0 L 5.0,5.0 L 0.0,0.0 z "
         style="fill-rule:evenodd;stroke:#000000;stroke-width:1pt;stroke-opacity:1;fill:#000000;fill-opacity:1"
         transform="scale(0.4) rotate(180) translate(10,0)" />
    </marker>
    <marker
       inkscape:stockid="Arrow1Mend"
       orient="auto"
       refY="0.0"
       refX="0.0"
       id="marker5725"
       style="overflow:visible;"
       inkscape:isstock="true">
      <path
         id="path5727"
         d="M 0.0,0.0 L 5.0,-5.0 L -12.5,0.0 L 5.0,5.0 L 0.0,0.0 z "
         style="fill-rule:evenodd;stroke:#000000;stroke-width:1pt;stroke-opacity:1;fill:#000000;fill-opacity:1"
         transform="scale(0.4) rotate(180) translate(10,0)" />
    </marker>
    <marker
       inkscape:isstock="true"
       style="overflow:visible;"
       id="marker4567"
       refX="0.0"
       refY="0.0"
       orient="auto"
       inkscape:stockid="Arrow1Mend"
       inkscape:collect="always">
      <path
         transform="scale(0.4) rotate(180) translate(10,0)"
         style="fill-rule:evenodd;stroke:#000000;stroke-width:1pt;stroke-opacity:1;fill:#000000;fill-opacity:1"
         d="M 0.0,0.0 L 5.0,-5.0 L -12.5,0.0 L 5.0,5.0 L 0.0,0.0 z "
         id="path4569" />
    </marker>
    <marker
       inkscape:stockid="Arrow1Mend"
       orient="auto"
       refY="0.0"
       refX="0.0"
       id="Arrow1Mend"
       style="overflow:visible;"
       inkscape:isstock="true"
       inkscape:collect="always">
      <path
         id="path4266"
         d="M 0.0,0.0 L 5.0,-5.0 L -12.5,0.0 L 5.0,5.0 L 0.0,0.0 z "
         style="fill-rule:evenodd;stroke:#000000;stroke-width:1pt;stroke-opacity:1;fill:#000000;fill-opacity:1"
         transform="scale(0.4) rotate(180) translate(10,0)" />
    </marker>
    <marker
       inkscape:stockid="Arrow1Lstart"
       orient="auto"
       refY="0.0"
       refX="0.0"
       id="Arrow1Lstart"
       style="overflow:visible"
       inkscape:isstock="true">
      <path
         id="path4257"
         d="M 0.0,0.0 L 5.0,-5.0 L -12.5,0.0 L 5.0,5.0 L 0.0,0.0 z "
         style="fill-rule:evenodd;stroke:#000000;stroke-width:1pt;stroke-opacity:1;fill:#000000;fill-opacity:1"
         transform="scale(0.8) translate(12.5,0)" />
    </marker>
    <inkscape:perspective
       sodipodi:type="inkscape:persp3d"
       inkscape:vp_x="277.79195 : 695.88667 : 1"
       inkscape:vp_y="0 : 999.99998 : 0"
       inkscape:vp_z="1782.5313 : 694.98494 : 1"
       inkscape:persp3d-origin="1036.7276 : 928.59464 : 1"
       id="perspective4216" />
    <inkscape:perspective
       sodipodi:type="inkscape:persp3d"
       inkscape:vp_x="-1605.8053 : 256.81661 : 1"
       inkscape:vp_y="0 : 2725.0234 : 0"
       inkscape:vp_z="2577.4998 : 254.35937 : 1"
       inkscape:persp3d-origin="504.10131 : 890.95128 : 1"
       id="perspective4136" />
  </defs>
  <sodipodi:namedview
     id="base"
     pagecolor="#ffffff"
     bordercolor="#666666"
     borderopacity="1.0"
     inkscape:pageopacity="0.0"
     inkscape:pageshadow="2"
     inkscape:zoom="3.959798"
     inkscape:cx="266.70533"
     inkscape:cy="1033.1342"
     inkscape:document-units="px"
     inkscape:current-layer="layer1"
     showgrid="false"
     showguides="true"
     inkscape:guide-bbox="true"
     inkscape:window-width="1918"
     inkscape:window-height="1027"
     inkscape:window-x="0"
     inkscape:window-y="24"
     inkscape:window-maximized="0">
    <inkscape:grid
       type="xygrid"
       id="grid4245" />
  </sodipodi:namedview>
  <metadata
     id="metadata7">
    <rdf:RDF>
      <cc:Work
         rdf:about="">
        <dc:format>image/svg+xml</dc:format>
        <dc:type
           rdf:resource="http://purl.org/dc/dcmitype/StillImage" />
        <dc:title></dc:title>
      </cc:Work>
    </rdf:RDF>
  </metadata>
  <g
     inkscape:label="Layer 1"
     inkscape:groupmode="layer"
     id="layer1">
    <path
       inkscape:connector-curvature="0"
       id="path4565"
       d="m 52.140307,53.917041 99.755123,-0.12882"
       style="fill:none;fill-rule:evenodd;stroke:#000000;stroke-width:1px;stroke-linecap:butt;stroke-linejoin:miter;stroke-opacity:1;marker-end:url(#marker4567)"
       sodipodi:nodetypes="cc" />
    <path
       sodipodi:nodetypes="cc"
       style="fill:none;fill-rule:evenodd;stroke:#000000;stroke-width:1px;stroke-linecap:butt;stroke-linejoin:miter;stroke-opacity:1;marker-end:url(#marker5725)"
       d="M 101.89032,103.79332 102.27168,3.9119312"
       id="path5723"
       inkscape:connector-curvature="0" />
    <path
       inkscape:connector-curvature="0"
       id="path7487"
       d="M 52.392847,53.538231 C 2.3928469,103.53823 2.3928469,103.53823 2.3928469,103.53823"
       style="opacity:0.5;fill:none;fill-rule:evenodd;stroke:#000000;stroke-width:1px;stroke-linecap:butt;stroke-linejoin:miter;stroke-opacity:1" />
    <path
       style="opacity:0.5;fill:none;fill-rule:evenodd;stroke:#000000;stroke-width:1px;stroke-linecap:butt;stroke-linejoin:miter;stroke-opacity:1"
       d="m 152.24105,54.021641 c -50,49.999999 -50,49.999999 -50,49.999999"
       id="path7793"
       inkscape:connector-curvature="0" />
    <path
       style="fill:none;fill-rule:evenodd;stroke:#6c8ebf;stroke-width:2;stroke-linecap:butt;stroke-linejoin:miter;stroke-opacity:1;stroke-miterlimit:4;stroke-dasharray:none"
       d="m 102.14286,3.7907712 c 0,0 6.62522,25.5537898 15.53571,34.4642898 8.9105,8.91049 34.46429,15.53571 34.46429,15.53571"
       id="path8093"
       inkscape:connector-curvature="0"
       sodipodi:nodetypes="csc" />
    <path
       style="fill:none;fill-rule:evenodd;stroke:#d79b00;stroke-width:2;stroke-linecap:butt;stroke-linejoin:miter;stroke-opacity:1;stroke-miterlimit:4;stroke-dasharray:none"
       d="m 64.796877,107.52067 c 0,0 -3.528624,-4.0419 -14.374983,-8.855701 -9.383301,-4.164475 -36.428577,-6.785708 -36.428577,-6.785708"
       id="path8159"
       inkscape:connector-curvature="0"
       sodipodi:nodetypes="csc" />
    <path
       style="fill:none;fill-rule:evenodd;stroke:#6c8ebf;stroke-width:2;stroke-linecap:butt;stroke-linejoin:miter;stroke-opacity:1;stroke-miterlimit:4;stroke-dasharray:none"
       d="m 52.321427,114.32649 c 0,0 2.61512,-4.09846 11.07142,-6.60713 8.60936,-2.55408 39.642863,-4.64287 39.642863,-4.64287"
       id="path8097"
       inkscape:connector-curvature="0"
       sodipodi:nodetypes="csc" />
    <text
       xml:space="preserve"
       style="font-style:normal;font-weight:normal;font-size:40px;line-height:125%;font-family:sans-serif;letter-spacing:0px;word-spacing:0px;fill:#000000;fill-opacity:1;stroke:none;stroke-width:1px;stroke-linecap:butt;stroke-linejoin:miter;stroke-opacity:1;opacity:0.5;"
       x="45.892841"
       y="33.790768"
       id="text8141"
       sodipodi:linespacing="125%"><tspan
         sodipodi:role="line"
         id="tspan8143"
         x="45.892841"
         y="33.790768">D1</tspan></text>
    <path
       sodipodi:nodetypes="csc"
       inkscape:connector-curvature="0"
       id="path8145"
       d="m 89.821427,29.147911 c 0,0 1.08951,8.94665 10,17.85715 8.910503,8.91049 39.821433,19.10714 39.821433,19.10714"
       style="fill:none;fill-rule:evenodd;stroke:#6c8ebf;stroke-width:2;stroke-linecap:butt;stroke-linejoin:miter;stroke-opacity:1;stroke-miterlimit:4;stroke-dasharray:none" />
    <path
       style="fill:none;fill-rule:evenodd;stroke:#6c8ebf;stroke-width:1px;stroke-linecap:butt;stroke-linejoin:miter;stroke-opacity:1"
       d="m 64.464287,82.540771 c 0,0 0.76077,3.04335 13.0357,5.89287 10.00001,2.32142 36.785723,3.21428 36.785723,3.21428"
       id="path8147"
       inkscape:connector-curvature="0"
       sodipodi:nodetypes="csc" />
    <path
       sodipodi:nodetypes="csc"
       inkscape:connector-curvature="0"
       id="path8151"
       d="m 52.647777,115.04078 c 0,0 -2.61512,-4.09846 -11.07142,-6.60713 -8.60936,-2.55408 -39.6428601,-4.64287 -39.6428601,-4.64287"
       style="fill:none;fill-rule:evenodd;stroke:#d79b00;stroke-width:2;stroke-linecap:butt;stroke-linejoin:miter;stroke-opacity:1;stroke-miterlimit:4;stroke-dasharray:none" />
    <path
       sodipodi:nodetypes="csc"
       inkscape:connector-curvature="0"
       id="path8153"
       d="m 102.16061,103.77302 c 0,0 -6.625223,-25.553789 -15.535713,-34.464289 -8.9105,-8.91049 -34.46429,-15.53571 -34.46429,-15.53571"
       style="fill:none;fill-rule:evenodd;stroke:#d79b00;stroke-width:2;stroke-linecap:butt;stroke-linejoin:miter;stroke-opacity:1;stroke-miterlimit:4;stroke-dasharray:none" />
    <path
       style="fill:none;fill-rule:evenodd;stroke:#d79b00;stroke-width:2;stroke-linecap:butt;stroke-linejoin:miter;stroke-opacity:1;stroke-miterlimit:4;stroke-dasharray:none"
       d="m 89.300607,103.39716 c 0,0 -1.08951,-8.946649 -10,-17.857149 -8.9105,-8.91049 -39.82143,-19.10714 -39.82143,-19.10714"
       id="path8155"
       inkscape:connector-curvature="0"
       sodipodi:nodetypes="csc" />
    <path
       style="fill:none;fill-rule:evenodd;stroke:#d79b00;stroke-width:2;stroke-linecap:butt;stroke-linejoin:miter;stroke-opacity:1;stroke-miterlimit:4;stroke-dasharray:none"
       d="m 76.921387,103.87584 c 0,0 -2.74821,-8.037419 -14.19641,-13.303589 -8.92858,-4.10713 -36.42858,-11.24999 -36.42858,-11.24999"
       id="path8157"
       inkscape:connector-curvature="0"
       sodipodi:nodetypes="csc" />
    <path
       style="fill:none;fill-rule:evenodd;stroke:#000000;stroke-width:1px;stroke-linecap:butt;stroke-linejoin:miter;stroke-opacity:1;marker-end:url(#Arrow1Mend)"
       d="M 102.14286,53.790771 C 52.142857,103.79077 52.142857,103.79077 52.142857,103.79077"
       id="path4251"
       inkscape:connector-curvature="0" />
    <path
       sodipodi:nodetypes="csc"
       inkscape:connector-curvature="0"
       id="path8095"
       d="m 77.142857,53.790771 c 0,0 4.62322,5.6267 16.07142,10.89287 8.928583,4.10713 34.464293,13.57142 34.464293,13.57142"
       style="fill:none;fill-rule:evenodd;stroke:#6c8ebf;stroke-width:2;stroke-linecap:butt;stroke-linejoin:miter;stroke-opacity:1;stroke-miterlimit:4;stroke-dasharray:none" />
    <path
       sodipodi:nodetypes="csc"
       inkscape:connector-curvature="0"
       id="path8149"
       d="m 64.464287,82.540771 c 0,0 0.76077,3.04335 13.0357,5.89287 10.00001,2.32142 36.785723,3.21428 36.785723,3.21428"
       style="fill:none;fill-rule:evenodd;stroke:#6c8ebf;stroke-width:2;stroke-linecap:butt;stroke-linejoin:miter;stroke-opacity:1;stroke-miterlimit:4;stroke-dasharray:none" />
    <path
       sodipodi:nodetypes="cc"
       style="fill:none;fill-rule:evenodd;stroke:#000000;stroke-width:1px;stroke-linecap:butt;stroke-linejoin:miter;stroke-opacity:1;marker-end:url(#marker8324)"
       d="m 245.08673,52.756326 99.75513,-0.12882"
       id="path8288"
       inkscape:connector-curvature="0" />
    <path
       inkscape:connector-curvature="0"
       id="path8290"
       d="M 294.83675,102.6326 295.21811,2.7512169"
       style="fill:none;fill-rule:evenodd;stroke:#000000;stroke-width:1px;stroke-linecap:butt;stroke-linejoin:miter;stroke-opacity:1;marker-end:url(#marker5725)"
       sodipodi:nodetypes="cc" />
    <path
       style="opacity:0.5;fill:none;fill-rule:evenodd;stroke:#000000;stroke-width:1px;stroke-linecap:butt;stroke-linejoin:miter;stroke-opacity:1"
       d="m 245.33927,52.377516 c -50,49.999994 -50,49.999994 -50,49.999994"
       id="path8292"
       inkscape:connector-curvature="0" />
    <path
       inkscape:connector-curvature="0"
       id="path8294"
       d="m 345.18748,52.860926 c -50,49.999994 -50,49.999994 -50,49.999994"
       style="opacity:0.5;fill:none;fill-rule:evenodd;stroke:#000000;stroke-width:1px;stroke-linecap:butt;stroke-linejoin:miter;stroke-opacity:1" />
    <path
       sodipodi:nodetypes="csc"
       inkscape:connector-curvature="0"
       id="path8296"
       d="m 295.08929,2.6300569 c 0,0 6.62522,25.5537891 15.53571,34.4642891 8.9105,8.91049 34.46429,15.53571 34.46429,15.53571"
       style="fill:none;fill-rule:evenodd;stroke:#6c8ebf;stroke-width:2;stroke-linecap:butt;stroke-linejoin:miter;stroke-opacity:1;stroke-miterlimit:4;stroke-dasharray:none" />
    <text
       sodipodi:linespacing="125%"
       id="text8300"
       y="32.630051"
       x="238.83928"
       style="font-style:normal;font-weight:normal;font-size:40px;line-height:125%;font-family:sans-serif;letter-spacing:0px;word-spacing:0px;fill:#000000;fill-opacity:1;stroke:none;stroke-width:1px;stroke-linecap:butt;stroke-linejoin:miter;stroke-opacity:1;opacity:0.5;"
       xml:space="preserve"><tspan
         y="32.630051"
         x="238.83928"
         id="tspan8302"
         sodipodi:role="line">D2</tspan></text>
    <path
       style="fill:none;fill-rule:evenodd;stroke:#6c8ebf;stroke-width:2;stroke-linecap:butt;stroke-linejoin:miter;stroke-opacity:1;stroke-miterlimit:4;stroke-dasharray:none"
       d="m 282.76785,27.987196 c 0,0 1.08951,8.94665 10,17.85715 8.91051,8.91049 39.82144,19.10714 39.82144,19.10714"
       id="path8304"
       inkscape:connector-curvature="0"
       sodipodi:nodetypes="csc" />
    <path
       style="fill:none;fill-rule:evenodd;stroke:#d79b00;stroke-width:2;stroke-linecap:butt;stroke-linejoin:miter;stroke-opacity:1;stroke-miterlimit:4;stroke-dasharray:none"
       d="m 245.50491,91.507284 c 0,0 -2.61512,4.09846 -11.07142,6.60713 -8.60936,2.554076 -39.64286,4.642866 -39.64286,4.642866"
       id="path8308"
       inkscape:connector-curvature="0"
       sodipodi:nodetypes="csc" />
    <path
       style="fill:none;fill-rule:evenodd;stroke:#d79b00;stroke-width:2;stroke-linecap:butt;stroke-linejoin:miter;stroke-opacity:1;stroke-miterlimit:4;stroke-dasharray:none"
       d="m 295.10704,102.6123 c 0,0 -6.62523,-25.553784 -15.53572,-34.464284 -8.9105,-8.91049 -34.46429,-15.53571 -34.46429,-15.53571"
       id="path8310"
       inkscape:connector-curvature="0"
       sodipodi:nodetypes="csc" />
    <path
       sodipodi:nodetypes="csc"
       inkscape:connector-curvature="0"
       id="path8312"
       d="m 282.24703,102.23644 c 0,0 -1.08951,-8.946644 -10,-17.857144 -8.9105,-8.91049 -39.82143,-19.10714 -39.82143,-19.10714"
       style="fill:none;fill-rule:evenodd;stroke:#d79b00;stroke-width:2;stroke-linecap:butt;stroke-linejoin:miter;stroke-opacity:1;stroke-miterlimit:4;stroke-dasharray:none" />
    <path
       sodipodi:nodetypes="csc"
       inkscape:connector-curvature="0"
       id="path8314"
       d="m 270.48309,52.303659 c 0,0 2.74821,8.037414 14.19641,13.303584 8.92858,4.10713 36.42858,11.249993 36.42858,11.249993"
       style="fill:none;fill-rule:evenodd;stroke:#6c8ebf;stroke-width:2;stroke-linecap:butt;stroke-linejoin:miter;stroke-opacity:1;stroke-miterlimit:4;stroke-dasharray:none" />
    <path
       style="fill:none;fill-rule:evenodd;stroke:#d79b00;stroke-width:2;stroke-linecap:butt;stroke-linejoin:miter;stroke-opacity:1;stroke-miterlimit:4;stroke-dasharray:none"
       d="m 257.29943,99.074879 c 0,0 -0.76077,-3.04335 -13.0357,-5.89287 -10.00001,-2.32142 -36.78573,-3.21428 -36.78573,-3.21428"
       id="path8322"
       inkscape:connector-curvature="0"
       sodipodi:nodetypes="csc" />
    <path
       style="fill:none;fill-rule:evenodd;stroke:#d79b00;stroke-width:2;stroke-linecap:butt;stroke-linejoin:miter;stroke-opacity:1;stroke-miterlimit:4;stroke-dasharray:none"
       d="m 270.59101,101.9779 c 0,0 -4.62322,-5.626699 -16.07142,-10.892869 -8.92859,-4.10713 -34.4643,-13.57142 -34.4643,-13.57142"
       id="path8320"
       inkscape:connector-curvature="0"
       sodipodi:nodetypes="csc" />
    <path
       inkscape:connector-curvature="0"
       id="path8318"
       d="M 295.08929,52.630056 C 245.08928,102.63005 245.08928,102.63005 245.08928,102.63005"
       style="fill:none;fill-rule:evenodd;stroke:#000000;stroke-width:1px;stroke-linecap:butt;stroke-linejoin:miter;stroke-opacity:1;marker-end:url(#Arrow1Mend)" />
    <path
       sodipodi:nodetypes="csc"
       inkscape:connector-curvature="0"
       id="path8298"
       d="m 244.91071,91.685851 c 0,0 2.61512,4.09846 11.07142,6.60713 8.60936,2.554079 39.64287,4.642869 39.64287,4.642869"
       style="fill:none;fill-rule:evenodd;stroke:#6c8ebf;stroke-width:2;stroke-linecap:butt;stroke-linejoin:miter;stroke-opacity:1;stroke-miterlimit:4;stroke-dasharray:none" />
    <path
       sodipodi:nodetypes="csc"
       inkscape:connector-curvature="0"
       id="path8316"
       d="m 256.76392,75.181464 c 0,0 1.49037,9.198802 13.7653,12.048322 10.00001,2.321417 36.78572,3.214277 36.78572,3.214277"
       style="fill:none;fill-rule:evenodd;stroke:#6c8ebf;stroke-width:2;stroke-linecap:butt;stroke-linejoin:miter;stroke-miterlimit:4;stroke-dasharray:none;stroke-opacity:1" />
    <path
       style="fill:none;fill-rule:evenodd;stroke:#82b366;stroke-width:1px;stroke-linecap:butt;stroke-linejoin:miter;stroke-opacity:1;opacity:0.5"
       d="M 102.27795,3.823861 90.029846,29.70902 77.529208,53.952681 64.270956,82.868298 52.401663,114.56183 l 0,0 0,0"
       id="path8766"
       inkscape:connector-curvature="0" />
    <path
       inkscape:connector-curvature="0"
       id="path8768"
       d="M 296.22724,1.8035559 283.97913,27.688715 271.4785,51.932376 255.31605,76.176038 245.08826,91.833393"
       style="opacity:0.5;fill:none;fill-rule:evenodd;stroke:#82b366;stroke-width:1px;stroke-linecap:butt;stroke-linejoin:miter;stroke-opacity:1"
       sodipodi:nodetypes="ccccc" />
  </g>
</svg>
