<?xml version="1.0" encoding="UTF-8" standalone="no"?>
<!-- Created with Inkscape (http://www.inkscape.org/) -->

<svg
   xmlns:dc="http://purl.org/dc/elements/1.1/"
   xmlns:cc="http://creativecommons.org/ns#"
   xmlns:rdf="http://www.w3.org/1999/02/22-rdf-syntax-ns#"
   xmlns:svg="http://www.w3.org/2000/svg"
   xmlns="http://www.w3.org/2000/svg"
   xmlns:sodipodi="http://sodipodi.sourceforge.net/DTD/sodipodi-0.dtd"
   xmlns:inkscape="http://www.inkscape.org/namespaces/inkscape"
   width="210mm"
   height="297mm"
   viewBox="0 0 744.09448819 1052.3622047"
   id="svg2"
   version="1.1"
   inkscape:version="0.91 r13725"
   sodipodi:docname="D1_D2_eSTDP_iSTDP.svg">
  <defs
     id="defs4">
    <marker
       inkscape:stockid="Arrow1Mend"
       orient="auto"
       refY="0.0"
       refX="0.0"
       id="marker7795"
       style="overflow:visible;"
       inkscape:isstock="true">
      <path
         id="path7797"
         d="M 0.0,0.0 L 5.0,-5.0 L -12.5,0.0 L 5.0,5.0 L 0.0,0.0 z "
         style="fill-rule:evenodd;stroke:#000000;stroke-width:1pt;stroke-opacity:1;fill:#000000;fill-opacity:1"
         transform="scale(0.4) rotate(180) translate(10,0)" />
    </marker>
    <marker
       inkscape:stockid="Arrow1Mend"
       orient="auto"
       refY="0.0"
       refX="0.0"
       id="marker5725"
       style="overflow:visible;"
       inkscape:isstock="true">
      <path
         id="path5727"
         d="M 0.0,0.0 L 5.0,-5.0 L -12.5,0.0 L 5.0,5.0 L 0.0,0.0 z "
         style="fill-rule:evenodd;stroke:#000000;stroke-width:1pt;stroke-opacity:1;fill:#000000;fill-opacity:1"
         transform="scale(0.4) rotate(180) translate(10,0)" />
    </marker>
    <marker
       inkscape:isstock="true"
       style="overflow:visible;"
       id="marker4567"
       refX="0.0"
       refY="0.0"
       orient="auto"
       inkscape:stockid="Arrow1Mend"
       inkscape:collect="always">
      <path
         transform="scale(0.4) rotate(180) translate(10,0)"
         style="fill-rule:evenodd;stroke:#000000;stroke-width:1pt;stroke-opacity:1;fill:#000000;fill-opacity:1"
         d="M 0.0,0.0 L 5.0,-5.0 L -12.5,0.0 L 5.0,5.0 L 0.0,0.0 z "
         id="path4569" />
    </marker>
    <marker
       inkscape:stockid="Arrow1Mend"
       orient="auto"
       refY="0.0"
       refX="0.0"
       id="Arrow1Mend"
       style="overflow:visible;"
       inkscape:isstock="true"
       inkscape:collect="always">
      <path
         id="path4266"
         d="M 0.0,0.0 L 5.0,-5.0 L -12.5,0.0 L 5.0,5.0 L 0.0,0.0 z "
         style="fill-rule:evenodd;stroke:#000000;stroke-width:1pt;stroke-opacity:1;fill:#000000;fill-opacity:1"
         transform="scale(0.4) rotate(180) translate(10,0)" />
    </marker>
    <marker
       inkscape:stockid="Arrow1Lstart"
       orient="auto"
       refY="0.0"
       refX="0.0"
       id="Arrow1Lstart"
       style="overflow:visible"
       inkscape:isstock="true">
      <path
         id="path4257"
         d="M 0.0,0.0 L 5.0,-5.0 L -12.5,0.0 L 5.0,5.0 L 0.0,0.0 z "
         style="fill-rule:evenodd;stroke:#000000;stroke-width:1pt;stroke-opacity:1;fill:#000000;fill-opacity:1"
         transform="scale(0.8) translate(12.5,0)" />
    </marker>
    <inkscape:perspective
       sodipodi:type="inkscape:persp3d"
       inkscape:vp_x="277.79195 : 695.88667 : 1"
       inkscape:vp_y="0 : 999.99998 : 0"
       inkscape:vp_z="1782.5313 : 694.98494 : 1"
       inkscape:persp3d-origin="1036.7276 : 928.59464 : 1"
       id="perspective4216" />
    <inkscape:perspective
       sodipodi:type="inkscape:persp3d"
       inkscape:vp_x="-1605.8053 : 256.81661 : 1"
       inkscape:vp_y="0 : 2725.0234 : 0"
       inkscape:vp_z="2577.4998 : 254.35937 : 1"
       inkscape:persp3d-origin="504.10131 : 890.95128 : 1"
       id="perspective4136" />
  </defs>
  <sodipodi:namedview
     id="base"
     pagecolor="#ffffff"
     bordercolor="#666666"
     borderopacity="1.0"
     inkscape:pageopacity="0.0"
     inkscape:pageshadow="2"
     inkscape:zoom="5.6"
     inkscape:cx="259.99743"
     inkscape:cy="783.6505"
     inkscape:document-units="px"
     inkscape:current-layer="layer1"
     showgrid="false"
     showguides="true"
     inkscape:guide-bbox="true"
     inkscape:window-width="1918"
     inkscape:window-height="1027"
     inkscape:window-x="0"
     inkscape:window-y="24"
     inkscape:window-maximized="0">
    <sodipodi:guide
       position="290,795.00002"
       orientation="1,0"
       id="guide4218" />
    <sodipodi:guide
       position="290,795.00002"
       orientation="0,1"
       id="guide4220" />
    <inkscape:grid
       type="xygrid"
       id="grid4245" />
    <sodipodi:guide
       position="240,745.00002"
       orientation="1,0"
       id="guide4249" />
  </sodipodi:namedview>
  <metadata
     id="metadata7">
    <rdf:RDF>
      <cc:Work
         rdf:about="">
        <dc:format>image/svg+xml</dc:format>
        <dc:type
           rdf:resource="http://purl.org/dc/dcmitype/StillImage" />
        <dc:title></dc:title>
      </cc:Work>
    </rdf:RDF>
  </metadata>
  <g
     inkscape:label="Layer 1"
     inkscape:groupmode="layer"
     id="layer1">
    <g
       inkscape:corner7="0.083097818 : -0.058678494 : 0.12526713 : 1"
       inkscape:corner0="0.23299967 : 0.069611283 : 0 : 1"
       inkscape:perspectiveID="#perspective4216"
       style="fill:#51c5d6;fill-opacity:1;stroke:none;stroke-width:1;stroke-miterlimit:4;stroke-dasharray:none;stroke-opacity:1"
       id="g4202"
       sodipodi:type="inkscape:box3d">
      <path
         points="1061.8515,106.38034 1061.8515,212.5484 975.32061,228.43258 975.32061,133.98149 "
         d="m 975.32061,133.98149 86.53089,-27.60115 0,106.16806 -86.53089,15.88418 z"
         inkscape:box3dsidetype="11"
         style="fill:#e9e9ff;fill-rule:evenodd;stroke:none;stroke-width:1px;stroke-linecap:butt;stroke-linejoin:round;stroke-opacity:1"
         id="path4204"
         sodipodi:type="inkscape:box3dside" />
      <path
         points="893.31169,215.33239 975.32061,228.43258 975.32061,133.98149 893.31169,111.2855 "
         d="m 893.31169,111.2855 0,104.04689 82.00892,13.10019 0,-94.45109 z"
         inkscape:box3dsidetype="6"
         style="fill:#353564;fill-rule:evenodd;stroke:none;stroke-width:1px;stroke-linecap:butt;stroke-linejoin:round;stroke-opacity:1"
         id="path4206"
         sodipodi:type="inkscape:box3dside" />
      <path
         points="978.50026,77.350949 1061.8515,106.38034 975.32061,133.98149 893.31169,111.2855 "
         d="m 893.31169,111.2855 85.18857,-33.934551 83.35124,29.029391 -86.53089,27.60115 z"
         inkscape:box3dsidetype="5"
         style="fill:#4d4d9f;fill-rule:evenodd;stroke:none;stroke-width:1px;stroke-linecap:butt;stroke-linejoin:round;stroke-opacity:1"
         id="path4208"
         sodipodi:type="inkscape:box3dside" />
      <path
         points="978.50026,195.79803 1061.8515,212.5484 975.32061,228.43258 893.31169,215.33239 "
         d="m 893.31169,215.33239 85.18857,-19.53436 83.35124,16.75037 -86.53089,15.88418 z"
         inkscape:box3dsidetype="13"
         style="fill:#afafde;fill-rule:evenodd;stroke:none;stroke-width:1px;stroke-linecap:butt;stroke-linejoin:round;stroke-opacity:1"
         id="path4210"
         sodipodi:type="inkscape:box3dside" />
      <path
         points="978.50026,195.79803 1061.8515,212.5484 1061.8515,106.38034 978.50026,77.350949 "
         d="m 978.50026,77.350949 0,118.447081 83.35124,16.75037 0,-106.16806 z"
         inkscape:box3dsidetype="14"
         style="fill:#d7d7ff;fill-rule:evenodd;stroke:none;stroke-width:1px;stroke-linecap:butt;stroke-linejoin:round;stroke-opacity:1"
         id="path4212"
         sodipodi:type="inkscape:box3dside" />
      <path
         points="978.50026,77.350949 978.50026,195.79803 893.31169,215.33239 893.31169,111.2855 "
         d="m 893.31169,111.2855 85.18857,-33.934551 0,118.447081 -85.18857,19.53436 z"
         inkscape:box3dsidetype="3"
         style="fill:#8686bf;fill-rule:evenodd;stroke:none;stroke-width:1px;stroke-linecap:butt;stroke-linejoin:round;stroke-opacity:1"
         id="path4214"
         sodipodi:type="inkscape:box3dside" />
    </g>
    <path
       inkscape:connector-curvature="0"
       id="path4565"
       d="m 239.99745,257.48847 99.75512,-0.12882"
       style="fill:none;fill-rule:evenodd;stroke:#000000;stroke-width:1px;stroke-linecap:butt;stroke-linejoin:miter;stroke-opacity:1;marker-end:url(#marker4567)"
       sodipodi:nodetypes="cc" />
    <path
       sodipodi:nodetypes="cc"
       style="fill:none;fill-rule:evenodd;stroke:#000000;stroke-width:1px;stroke-linecap:butt;stroke-linejoin:miter;stroke-opacity:1;marker-end:url(#marker5725)"
       d="m 289.74746,307.36475 0.38136,-99.88139"
       id="path5723"
       inkscape:connector-curvature="0" />
    <path
       inkscape:connector-curvature="0"
       id="path7487"
       d="m 240.24999,257.10966 c -50,50 -50,50 -50,50"
       style="fill:none;fill-rule:evenodd;stroke:#000000;stroke-width:1px;stroke-linecap:butt;stroke-linejoin:miter;stroke-opacity:1;marker-end:;opacity:0.5" />
    <path
       style="opacity:0.5;fill:none;fill-rule:evenodd;stroke:#000000;stroke-width:1px;stroke-linecap:butt;stroke-linejoin:miter;stroke-opacity:1;marker-end:"
       d="m 340.09819,257.59307 c -50,50 -50,50 -50,50"
       id="path7793"
       inkscape:connector-curvature="0" />
    <path
       style="fill:none;fill-rule:evenodd;stroke:#6c8ebf;stroke-width:1px;stroke-linecap:butt;stroke-linejoin:miter;stroke-opacity:1"
       d="m 290,207.3622 c 0,0 6.62522,25.55379 15.53571,34.46429 C 314.44621,250.73698 340,257.3622 340,257.3622"
       id="path8093"
       inkscape:connector-curvature="0"
       sodipodi:nodetypes="csc" />
    <path
       style="fill:none;fill-rule:evenodd;stroke:#6c8ebf;stroke-width:1px;stroke-linecap:butt;stroke-linejoin:miter;stroke-opacity:1"
       d="m 240.17857,317.89792 c 0,0 2.61512,-4.09846 11.07142,-6.60713 8.60936,-2.55408 39.64286,-4.64287 39.64286,-4.64287"
       id="path8097"
       inkscape:connector-curvature="0"
       sodipodi:nodetypes="csc" />
    <text
       xml:space="preserve"
       style="font-style:normal;font-weight:normal;font-size:40px;line-height:125%;font-family:sans-serif;letter-spacing:0px;word-spacing:0px;fill:#000000;fill-opacity:1;stroke:none;stroke-width:1px;stroke-linecap:butt;stroke-linejoin:miter;stroke-opacity:1"
       x="233.74998"
       y="237.3622"
       id="text8141"
       sodipodi:linespacing="125%"><tspan
         sodipodi:role="line"
         id="tspan8143"
         x="233.74998"
         y="237.3622">D1</tspan></text>
    <path
       sodipodi:nodetypes="csc"
       inkscape:connector-curvature="0"
       id="path8145"
       d="m 277.67857,232.71934 c 0,0 1.08951,8.94665 10,17.85715 8.9105,8.91049 39.82143,19.10714 39.82143,19.10714"
       style="fill:none;fill-rule:evenodd;stroke:#6c8ebf;stroke-width:1px;stroke-linecap:butt;stroke-linejoin:miter;stroke-opacity:1" />
    <path
       style="fill:none;fill-rule:evenodd;stroke:#6c8ebf;stroke-width:1px;stroke-linecap:butt;stroke-linejoin:miter;stroke-opacity:1"
       d="m 252.32143,286.1122 c 0,0 0.76077,3.04335 13.0357,5.89287 10.00001,2.32142 36.78572,3.21428 36.78572,3.21428"
       id="path8147"
       inkscape:connector-curvature="0"
       sodipodi:nodetypes="csc" />
    <path
       sodipodi:nodetypes="csc"
       inkscape:connector-curvature="0"
       id="path8151"
       d="m 240.50492,318.61221 c 0,0 -2.61512,-4.09846 -11.07142,-6.60713 -8.60936,-2.55408 -39.64286,-4.64287 -39.64286,-4.64287"
       style="fill:none;fill-rule:evenodd;stroke:#6c8ebf;stroke-width:1px;stroke-linecap:butt;stroke-linejoin:miter;stroke-opacity:1" />
    <path
       sodipodi:nodetypes="csc"
       inkscape:connector-curvature="0"
       id="path8153"
       d="m 290.01775,307.34445 c 0,0 -6.62522,-25.55379 -15.53571,-34.46429 -8.9105,-8.91049 -34.46429,-15.53571 -34.46429,-15.53571"
       style="fill:none;fill-rule:evenodd;stroke:#6c8ebf;stroke-width:1px;stroke-linecap:butt;stroke-linejoin:miter;stroke-opacity:1" />
    <path
       style="fill:none;fill-rule:evenodd;stroke:#6c8ebf;stroke-width:1px;stroke-linecap:butt;stroke-linejoin:miter;stroke-opacity:1"
       d="m 277.15775,306.96859 c 0,0 -1.08951,-8.94665 -10,-17.85715 -8.9105,-8.91049 -39.82143,-19.10714 -39.82143,-19.10714"
       id="path8155"
       inkscape:connector-curvature="0"
       sodipodi:nodetypes="csc" />
    <path
       style="fill:none;fill-rule:evenodd;stroke:#6c8ebf;stroke-width:1px;stroke-linecap:butt;stroke-linejoin:miter;stroke-opacity:1"
       d="m 264.77853,307.44727 c 0,0 -2.74821,-8.03742 -14.19641,-13.30359 -8.92858,-4.10713 -36.42858,-11.24999 -36.42858,-11.24999"
       id="path8157"
       inkscape:connector-curvature="0"
       sodipodi:nodetypes="csc" />
    <path
       style="fill:none;fill-rule:evenodd;stroke:#6c8ebf;stroke-width:1px;stroke-linecap:butt;stroke-linejoin:miter;stroke-opacity:1"
       d="m 252.65402,307.68284 c 0,0 -1.74291,-6.16835 -14.01784,-9.01787 -10.00001,-2.32142 -36.78572,-3.21428 -36.78572,-3.21428"
       id="path8159"
       inkscape:connector-curvature="0"
       sodipodi:nodetypes="csc" />
    <path
       style="fill:none;fill-rule:evenodd;stroke:#000000;stroke-width:1px;stroke-linecap:butt;stroke-linejoin:miter;stroke-opacity:1;marker-end:url(#Arrow1Mend)"
       d="m 290,257.3622 c -50,50 -50,50 -50,50"
       id="path4251"
       inkscape:connector-curvature="0" />
    <path
       sodipodi:nodetypes="csc"
       inkscape:connector-curvature="0"
       id="path8095"
       d="m 265,257.3622 c 0,0 4.62322,5.6267 16.07142,10.89287 8.92858,4.10713 34.46429,13.57142 34.46429,13.57142"
       style="fill:none;fill-rule:evenodd;stroke:#6c8ebf;stroke-width:1px;stroke-linecap:butt;stroke-linejoin:miter;stroke-opacity:1" />
    <path
       sodipodi:nodetypes="csc"
       inkscape:connector-curvature="0"
       id="path8149"
       d="m 252.32143,286.1122 c 0,0 0.76077,3.04335 13.0357,5.89287 10.00001,2.32142 36.78572,3.21428 36.78572,3.21428"
       style="fill:none;fill-rule:evenodd;stroke:#6c8ebf;stroke-width:1px;stroke-linecap:butt;stroke-linejoin:miter;stroke-opacity:1" />
  </g>
</svg>
