<?xml version="1.0" encoding="utf-8"?>
<!-- Generator: Adobe Illustrator 21.0.0, SVG Export Plug-In . SVG Version: 6.00 Build 0)  -->
<svg version="1.1" xmlns="http://www.w3.org/2000/svg" xmlns:xlink="http://www.w3.org/1999/xlink" x="0px" y="0px"
	 viewBox="0 0 315 293.7" style="enable-background:new 0 0 315 293.7;" xml:space="preserve">
<style type="text/css">
	.st0{display:none;}
	.st1{fill:none;stroke:#F0AA33;stroke-width:6;stroke-miterlimit:10;}
	.st2{fill:none;stroke:#285C79;stroke-width:6;stroke-miterlimit:10;}
	.st3{fill:none;stroke:#010101;}
	.st4{fill:#010101;stroke:#010101;}
	.st5{fill:#010101;}
	.st6{font-family:'Helvetica';}
	.st7{font-size:35.304px;}
	.st8{fill:#787979;}
	.st9{font-size:30.4338px;}
	.st10{font-size:35.3104px;}
</style>
<g id="Слой_1">
</g>
<g id="Слой_3" class="st0">
</g>
<g id="Слой_4">
	<path class="st1" d="M303.5,148.9c-25.4-5.1-45.8-59.9-57.7-92.2c-11-29.9-63.3-24.6-67.8-0.4c-3.7,20.3-15.7,86.4-16.9,95.2"/>
	<path class="st2" d="M18.5,153.2c25.4,5.1,45.8,59.9,57.7,92.2c11,29.9,63.3,24.6,67.8,0.4c3.7-20.3,15.7-86.4,16.9-95.2"/>
</g>
<g id="Слой_2">
	<line class="st3" x1="161.5" y1="21.4" x2="161.2" y2="292.2"/>
	<line class="st3" x1="296" y1="151" x2="13.9" y2="151"/>
	<path id="path5727_1_" class="st4" d="M161.5,21.4l5.9,5.7l-5.8-19.8l-6,19.7L161.5,21.4z"/>
	<path id="path5311_1_" class="st4" d="M296,151l-5.9,5.7l20.6-5.7l-20.6-5.6L296,151z"/>
	<text transform="matrix(1.0434 0 0 1 270.2591 187.7395)" class="st5 st6 st7">Δt</text>
	<text transform="matrix(1.0434 0 0 1 40.1351 30.5706)" class="st5 st6 st7">dw/dt</text>
	<text transform="matrix(0.9622 0 0 1 75.6004 145.1979)" class="st8 st6 st9">iSTDP</text>
	<text transform="matrix(0.9622 0 0 1 -7.041606e-05 115.996)" class="st8 st6 st10">Sinusoidal</text>
</g>
</svg>
